<svg  viewBox="0 0 32 31" fill="none" xmlns="http://www.w3.org/2000/svg">
<path d="M30.4013 1L17.9209 10.2842L20.2419 4.80499L30.4013 1Z" fill="#E17726" stroke="#E17726" stroke-width="0.380499" stroke-linecap="round" stroke-linejoin="round"/>
<path d="M1.55957 1L13.9639 10.3603L11.757 4.80499L1.55957 1Z" fill="#E27625" stroke="#E27625" stroke-width="0.380499" stroke-linecap="round" stroke-linejoin="round"/>
<path d="M25.9128 22.4985L22.5645 27.5972L29.7178 29.5758L31.7345 22.6127L25.9128 22.4985Z" fill="#E27625" stroke="#E27625" stroke-width="0.380499" stroke-linecap="round" stroke-linejoin="round"/>
<path d="M0.266602 22.6127L2.28325 29.5758L9.39859 27.5972L6.08824 22.4985L0.266602 22.6127Z" fill="#E27625" stroke="#E27625" stroke-width="0.380499" stroke-linecap="round" stroke-linejoin="round"/>
<path d="M9.01766 13.8988L7.03906 16.9047L14.0783 17.2091L13.85 9.59912L9.01766 13.8988Z" fill="#E27625" stroke="#E27625" stroke-width="0.380499" stroke-linecap="round" stroke-linejoin="round"/>
<path d="M22.9825 13.8987L18.0741 9.52295L17.9219 17.209L24.9611 16.9046L22.9825 13.8987Z" fill="#E27625" stroke="#E27625" stroke-width="0.380499" stroke-linecap="round" stroke-linejoin="round"/>
<path d="M9.39844 27.5969L13.66 25.5422L9.96919 22.6504L9.39844 27.5969Z" fill="#E27625" stroke="#E27625" stroke-width="0.380499" stroke-linecap="round" stroke-linejoin="round"/>
<path d="M18.3398 25.5422L22.5634 27.5969L21.9926 22.6504L18.3398 25.5422Z" fill="#E27625" stroke="#E27625" stroke-width="0.380499" stroke-linecap="round" stroke-linejoin="round"/>
<path d="M22.5624 27.5967L18.3389 25.542L18.6813 28.2816L18.6433 29.4611L22.5624 27.5967Z" fill="#D5BFB2" stroke="#D5BFB2" stroke-width="0.380499" stroke-linecap="round" stroke-linejoin="round"/>
<path d="M9.39746 27.5967L13.3547 29.4611L13.3166 28.2816L13.6591 25.542L9.39746 27.5967Z" fill="#D5BFB2" stroke="#D5BFB2" stroke-width="0.380499" stroke-linecap="round" stroke-linejoin="round"/>
<path d="M13.4312 20.8236L9.89258 19.7963L12.3658 18.6548L13.4312 20.8236Z" fill="#233447" stroke="#233447" stroke-width="0.380499" stroke-linecap="round" stroke-linejoin="round"/>
<path d="M18.5693 20.8236L19.5967 18.6548L22.108 19.7963L18.5693 20.8236Z" fill="#233447" stroke="#233447" stroke-width="0.380499" stroke-linecap="round" stroke-linejoin="round"/>
<path d="M9.39921 27.5972L10.008 22.4985L6.08887 22.6127L9.39921 27.5972Z" fill="#CC6228" stroke="#CC6228" stroke-width="0.380499" stroke-linecap="round" stroke-linejoin="round"/>
<path d="M21.9932 22.4985L22.5639 27.5972L25.9123 22.6127L21.9932 22.4985Z" fill="#CC6228" stroke="#CC6228" stroke-width="0.380499" stroke-linecap="round" stroke-linejoin="round"/>
<path d="M24.9611 16.9053L17.9219 17.2097L18.5687 20.8244L19.5961 18.6556L22.1074 19.7971L24.9611 16.9053Z" fill="#CC6228" stroke="#CC6228" stroke-width="0.380499" stroke-linecap="round" stroke-linejoin="round"/>
<path d="M9.89378 19.7971L12.367 18.6556L13.4324 20.8244L14.0793 17.2097L7.04004 16.9053L9.89378 19.7971Z" fill="#CC6228" stroke="#CC6228" stroke-width="0.380499" stroke-linecap="round" stroke-linejoin="round"/>
<path d="M7.04004 16.9053L9.96988 22.6508L9.89378 19.7971L7.04004 16.9053Z" fill="#E27525" stroke="#E27525" stroke-width="0.380499" stroke-linecap="round" stroke-linejoin="round"/>
<path d="M22.1073 19.7971L21.9932 22.6508L24.9611 16.9053L22.1073 19.7971Z" fill="#E27525" stroke="#E27525" stroke-width="0.380499" stroke-linecap="round" stroke-linejoin="round"/>
<path d="M14.0795 17.2095L13.4326 20.8242L14.2317 25.1239L14.4219 19.4544L14.0795 17.2095Z" fill="#E27525" stroke="#E27525" stroke-width="0.380499" stroke-linecap="round" stroke-linejoin="round"/>
<path d="M17.9225 17.2095L17.5801 19.4544L17.7323 25.1239L18.5694 20.8242L17.9225 17.2095Z" fill="#E27525" stroke="#E27525" stroke-width="0.380499" stroke-linecap="round" stroke-linejoin="round"/>
<path d="M18.5685 20.8242L17.7314 25.1239L18.3402 25.5424L21.993 22.6506L22.1072 19.7969L18.5685 20.8242Z" fill="#F5841F" stroke="#F5841F" stroke-width="0.380499" stroke-linecap="round" stroke-linejoin="round"/>
<path d="M9.89258 19.7969L9.96868 22.6506L13.6595 25.5424L14.2303 25.1239L13.4312 20.8242L9.89258 19.7969Z" fill="#F5841F" stroke="#F5841F" stroke-width="0.380499" stroke-linecap="round" stroke-linejoin="round"/>
<path d="M18.6446 29.4611L18.6826 28.2816L18.3402 28.0152H13.622L13.3176 28.2816L13.3556 29.4611L9.39844 27.5967L10.7682 28.7382L13.5839 30.6787H18.3782L21.1939 28.7382L22.5637 27.5967L18.6446 29.4611Z" fill="#C0AC9D" stroke="#C0AC9D" stroke-width="0.380499" stroke-linecap="round" stroke-linejoin="round"/>
<path d="M18.339 25.5426L17.7302 25.124H14.2296L13.6589 25.5426L13.3164 28.2822L13.6208 28.0158H18.339L18.6814 28.2822L18.339 25.5426Z" fill="#1A1B2F" stroke="#1A1B2F" stroke-width="0.380499" stroke-linecap="round" stroke-linejoin="round"/>
<path d="M30.9344 10.893L31.9998 5.75624L30.4017 1L18.3398 9.97979L22.9819 13.8989L29.5265 15.8014L30.9724 14.1272L30.3636 13.6706L31.3529 12.7574L30.5919 12.1486L31.5812 11.3876L30.9344 10.893Z" fill="#763E1A" stroke="#763E1A" stroke-width="0.380499" stroke-linecap="round" stroke-linejoin="round"/>
<path d="M0 5.75624L1.0654 10.893L0.380499 11.3876L1.3698 12.1486L0.608799 12.7574L1.63615 13.6706L0.989298 14.1272L2.4352 15.8014L9.01784 13.8989L13.6599 9.97979L1.56005 1L0 5.75624Z" fill="#763E1A" stroke="#763E1A" stroke-width="0.380499" stroke-linecap="round" stroke-linejoin="round"/>
<path d="M29.5271 15.8014L22.9825 13.8989L24.9611 16.9049L21.9932 22.6504L25.9123 22.6124H31.734L29.5271 15.8014Z" fill="#F5841F" stroke="#F5841F" stroke-width="0.380499" stroke-linecap="round" stroke-linejoin="round"/>
<path d="M9.01711 13.8989L2.43447 15.8014L0.265625 22.6124H6.08727L9.96836 22.6504L7.03852 16.9049L9.01711 13.8989Z" fill="#F5841F" stroke="#F5841F" stroke-width="0.380499" stroke-linecap="round" stroke-linejoin="round"/>
<path d="M17.9219 17.2095L18.3405 9.97997L20.2429 4.80518H11.7578L13.6603 9.97997L14.0789 17.2095L14.2311 19.4925V25.1238H17.7317V19.4925L17.9219 17.2095Z" fill="#F5841F" stroke="#F5841F" stroke-width="0.380499" stroke-linecap="round" stroke-linejoin="round"/>
</svg>
