<svg  viewBox="0 0 186 35" fill="none" xmlns="http://www.w3.org/2000/svg">
<path d="M35.5845 0L20.9766 10.8668L23.6934 4.45362L35.5845 0Z" fill="#E17726"/>
<path d="M1.82626 0L16.3451 10.9559L13.762 4.45362L1.82626 0Z" fill="#E27625"/>
<path d="M30.3296 25.163L26.4104 31.1308L34.7832 33.4467L37.1437 25.2966L30.3296 25.163Z" fill="#E27625"/>
<path d="M0.312011 25.2966L2.67243 33.4467L11.0007 31.1308L7.12606 25.163L0.312011 25.2966Z" fill="#E27625"/>
<path d="M10.5553 15.0978L8.23945 18.6161L16.4787 18.9724L16.2114 10.0652L10.5553 15.0978Z" fill="#E27625"/>
<path d="M26.9005 15.0978L21.1553 9.97614L20.9772 18.9725L29.2164 18.6162L26.9005 15.0978Z" fill="#E27625"/>
<path d="M11.0007 31.1308L15.9885 28.7259L11.6685 25.3411L11.0007 31.1308Z" fill="#E27625"/>
<path d="M21.4668 28.7259L26.4104 31.1308L25.7422 25.3411L21.4668 28.7259Z" fill="#E27625"/>
<path d="M26.4104 31.1308L21.4668 28.7259L21.8667 31.9325L21.8222 33.3131L26.4104 31.1308Z" fill="#D5BFB2"/>
<path d="M11.0007 31.1308L15.6321 33.3131L15.5876 31.9325L15.9885 28.7259L11.0007 31.1308Z" fill="#D5BFB2"/>
<path d="M15.7215 23.2034L11.5797 22.0009L14.4745 20.6648L15.7215 23.2034Z" fill="#233447"/>
<path d="M21.7338 23.2034L22.9363 20.6648L25.8756 22.0009L21.7338 23.2034Z" fill="#233447"/>
<path d="M11.0007 31.1308L11.714 25.163L7.12676 25.2966L11.0007 31.1308Z" fill="#CC6228"/>
<path d="M25.7426 25.163L26.4104 31.1308L30.3298 25.2966L25.7426 25.163Z" fill="#CC6228"/>
<path d="M29.2164 18.6162L20.9772 18.9725L21.7338 23.2034L22.9363 20.6648L25.8756 22.0009L29.2164 18.6162Z" fill="#CC6228"/>
<path d="M11.5797 22.0009L14.4745 20.6648L15.7215 23.2034L16.4787 18.9724L8.23945 18.6161L11.5797 22.0009Z" fill="#CC6228"/>
<path d="M8.23945 18.6161L11.6685 25.3411L11.5797 22.0009L8.23945 18.6161Z" fill="#E27525"/>
<path d="M25.8756 22.0009L25.7422 25.3411L29.2164 18.6162L25.8756 22.0009Z" fill="#E27525"/>
<path d="M16.4787 18.9724L15.7215 23.2034L16.6572 28.236L16.8799 21.6001L16.4787 18.9724Z" fill="#E27525"/>
<path d="M20.9772 18.9725L20.5769 21.6001L20.7551 28.236L21.7349 23.2034L20.9772 18.9725Z" fill="#E27525"/>
<path d="M21.7338 23.2034L20.7538 28.236L21.4668 28.7259L25.7422 25.3411L25.8756 22.0009L21.7338 23.2034Z" fill="#F5841F"/>
<path d="M11.5797 22.0009L11.6685 25.3411L15.9885 28.7259L16.6572 28.236L15.7215 23.2034L11.5797 22.0009Z" fill="#F5841F"/>
<path d="M21.8222 33.3131L21.8667 31.9325L21.4667 31.6207H15.9442L15.5876 31.9325L15.6321 33.3131L11.0007 31.1308L12.604 32.4669L15.8996 34.7383H21.5112L24.8069 32.4669L26.4104 31.1308L21.8222 33.3131Z" fill="#C0AC9D"/>
<path d="M21.4668 28.7259L20.7538 28.236L16.6572 28.236L15.9885 28.7259L15.5876 31.9325L15.9442 31.6207H21.4667L21.8667 31.9325L21.4668 28.7259Z" fill="#1A1B2F"/>
<path d="M36.2077 11.5794L37.4547 5.56703L35.5845 0L21.4662 10.5106L26.9005 15.0978L34.5599 17.3246L36.2523 15.365L35.5397 14.8306L36.6976 13.7617L35.8069 13.0491L36.9648 12.1584L36.2077 11.5794Z" fill="#763E1A"/>
<path d="M0 5.56703L1.24701 11.5794L0.445362 12.1584L1.6033 13.0491L0.712579 13.7617L1.91506 14.8306L1.15794 15.365L2.85032 17.3246L10.5553 15.0978L15.9885 10.5106L1.82626 0L0 5.56703Z" fill="#763E1A"/>
<path d="M34.5599 17.3246L26.9005 15.0978L29.2164 18.6162L25.7422 25.3411L30.3298 25.2966L37.1437 25.2966L34.5599 17.3246Z" fill="#F5841F"/>
<path d="M10.5553 15.0978L2.85032 17.3246L0.312011 25.2966L7.12553 25.2966L11.6685 25.3411L8.23945 18.6161L10.5553 15.0978Z" fill="#F5841F"/>
<path d="M20.9772 18.9725L21.4662 10.5106L23.6934 4.45362H13.762L15.9885 10.5106L16.4787 18.9724L16.6565 21.6446L16.6572 28.236L20.7538 28.236L20.7538 21.6446L20.9772 18.9725Z" fill="#F5841F"/>
<path d="M163.893 17.525C162.914 16.857 161.845 16.4116 160.776 15.8326C160.108 15.4763 159.395 15.1201 158.816 14.6302C157.837 13.8285 158.015 12.2252 159.084 11.5126C160.553 10.5328 163.003 11.0673 163.27 13.0714C163.27 13.1159 163.315 13.1605 163.359 13.1605H165.586C165.63 13.1605 165.675 13.1159 165.675 13.0714C165.541 11.6908 165.007 10.5328 164.027 9.7757C163.092 9.06312 162.023 8.70683 160.865 8.70683C154.986 8.70683 154.452 14.9419 157.614 16.9015C157.97 17.1242 161.088 18.6829 162.201 19.3955C163.315 20.0636 163.626 21.3106 163.181 22.2904C162.736 23.1811 161.622 23.8046 160.509 23.7155C159.262 23.6265 158.326 22.9584 157.97 21.9341C157.926 21.7559 157.881 21.3997 157.881 21.2215C157.881 21.177 157.837 21.1324 157.792 21.1324H155.387C155.343 21.1324 155.298 21.177 155.298 21.2215C155.298 22.9584 155.743 23.9382 156.901 24.8289C158.015 25.6751 159.217 26.0314 160.509 26.0314C163.804 26.0314 165.497 24.1609 165.853 22.2458C166.12 20.3753 165.586 18.683 163.893 17.525Z" fill="#1A1B2F"/>
<path d="M56.6946 9.06313C56.6501 9.06313 56.6055 9.10766 56.6055 9.10766L54.6014 15.6545C54.5569 15.7436 54.4678 15.7436 54.4233 15.6545L52.4191 9.10766C52.4191 9.06313 52.3746 9.06313 52.3301 9.06313H48.6781C48.6336 9.06313 48.589 9.10767 48.589 9.1522V25.8533C48.589 25.8978 48.6336 25.9424 48.6781 25.9424H51.083C51.1276 25.9424 51.1721 25.8978 51.1721 25.8533V13.1605C51.1721 13.0714 51.3057 13.0269 51.3503 13.1159L53.3544 19.7073L53.488 20.1527C53.488 20.1972 53.5325 20.1972 53.5771 20.1972H55.4476C55.4921 20.1972 55.5367 20.1527 55.5367 20.1527L55.6703 19.7073L57.6744 13.1159C57.719 13.0269 57.8526 13.0269 57.8526 13.1605V25.8533C57.8526 25.8978 57.8971 25.9424 57.9416 25.9424H60.3466C60.3911 25.9424 60.4357 25.8978 60.4357 25.8533V9.1522C60.4357 9.10767 60.3911 9.06313 60.3466 9.06313H56.6946Z" fill="#1A1B2F"/>
<path d="M126.883 9.06313C126.839 9.06313 126.794 9.10766 126.794 9.10766L124.79 15.6545C124.746 15.7436 124.657 15.7436 124.612 15.6545L122.608 9.10766C122.608 9.06313 122.563 9.06313 122.519 9.06313H118.822C118.778 9.06313 118.733 9.10767 118.733 9.1522V25.8533C118.733 25.8978 118.778 25.9424 118.822 25.9424H121.227C121.272 25.9424 121.316 25.8978 121.316 25.8533V13.1605C121.316 13.0714 121.45 13.0269 121.494 13.1159L123.499 19.7073L123.632 20.1527C123.632 20.1972 123.677 20.1972 123.721 20.1972H125.592C125.636 20.1972 125.681 20.1527 125.681 20.1527L125.814 19.7073L127.819 13.1159C127.863 13.0269 127.997 13.0269 127.997 13.1605V25.8533C127.997 25.8978 128.041 25.9424 128.086 25.9424H130.491C130.535 25.9424 130.58 25.8978 130.58 25.8533V9.1522C130.58 9.10767 130.535 9.06313 130.491 9.06313H126.883Z" fill="#1A1B2F"/>
<path d="M95.7087 9.06313H84.2629C84.2184 9.06313 84.1738 9.10767 84.1738 9.1522V11.2454C84.1738 11.2899 84.2184 11.3345 84.2629 11.3345H88.672V25.8533C88.672 25.8978 88.7165 25.9424 88.7611 25.9424H91.166C91.2106 25.9424 91.2551 25.8978 91.2551 25.8533V11.3345H95.6642C95.7087 11.3345 95.7533 11.2899 95.7533 11.2454V9.1522C95.7978 9.10767 95.7533 9.06313 95.7087 9.06313Z" fill="#1A1B2F"/>
<path d="M109.96 25.9424H112.142C112.187 25.9424 112.232 25.8978 112.232 25.8088L107.689 9.06315C107.689 9.01861 107.644 9.01861 107.6 9.01861H104.438C104.393 9.01861 104.349 9.06315 104.349 9.06315L99.8059 25.8088C99.8059 25.8533 99.8504 25.9424 99.895 25.9424H102.077C102.122 25.9424 102.166 25.8978 102.166 25.8978L103.502 20.9988C103.502 20.9543 103.547 20.9543 103.591 20.9543H108.446C108.49 20.9543 108.535 20.9988 108.535 20.9988L109.871 25.8978C109.871 25.8978 109.916 25.9424 109.96 25.9424ZM104.17 18.5494L105.952 12.0025C105.996 11.9135 106.086 11.9135 106.13 12.0025L107.911 18.5494C107.911 18.5939 107.867 18.683 107.822 18.683H104.304C104.215 18.683 104.17 18.5939 104.17 18.5494Z" fill="#1A1B2F"/>
<path d="M147.459 25.9424H149.642C149.686 25.9424 149.731 25.8978 149.731 25.8088L145.188 9.06315C145.188 9.01861 145.143 9.01861 145.099 9.01861H141.937C141.892 9.01861 141.848 9.06315 141.848 9.06315L137.305 25.8088C137.305 25.8533 137.35 25.9424 137.394 25.9424H139.576C139.621 25.9424 139.666 25.8978 139.666 25.8978L141.002 20.9988C141.002 20.9543 141.046 20.9543 141.091 20.9543H145.945C145.99 20.9543 146.034 20.9988 146.034 20.9988L147.37 25.8978C147.37 25.8978 147.415 25.9424 147.459 25.9424ZM141.67 18.5494L143.451 12.0025C143.496 11.9135 143.585 11.9135 143.629 12.0025L145.411 18.5494C145.411 18.5939 145.366 18.683 145.322 18.683H141.803C141.714 18.683 141.67 18.5939 141.67 18.5494Z" fill="#1A1B2F"/>
<path d="M70.2336 23.4483V18.2821C70.2336 18.2376 70.2781 18.1931 70.3227 18.1931H76.7804C76.825 18.1931 76.8695 18.1485 76.8695 18.104V16.0108C76.8695 15.9662 76.825 15.9217 76.7804 15.9217H70.3227C70.2781 15.9217 70.2336 15.8772 70.2336 15.8326V11.4235C70.2336 11.379 70.2781 11.3345 70.3227 11.3345H77.6266C77.6712 11.3345 77.7157 11.2899 77.7157 11.2454V9.1522C77.7157 9.10767 77.6712 9.06313 77.6266 9.06313H67.7396C67.695 9.06313 67.6505 9.10767 67.6505 9.1522V25.8533C67.6505 25.8978 67.695 25.9424 67.7396 25.9424H77.9384C77.9829 25.9424 78.0274 25.8978 78.0274 25.8533V23.671C78.0274 23.6265 77.9829 23.5819 77.9384 23.5819H70.2781C70.2781 23.5374 70.2336 23.4929 70.2336 23.4483Z" fill="#1A1B2F"/>
<path d="M185.983 25.7642L177.61 17.1242C177.566 17.0797 177.566 17.0351 177.61 16.9906L185.137 9.15222C185.182 9.10768 185.137 9.01861 185.092 9.01861H182.02C181.975 9.01861 181.975 9.01861 181.975 9.06315L175.562 15.7436C175.517 15.7881 175.428 15.7436 175.428 15.699V9.19675C175.428 9.15221 175.384 9.10768 175.339 9.10768H172.89C172.845 9.10768 172.801 9.15221 172.801 9.19675V25.8978C172.801 25.9424 172.845 25.9869 172.89 25.9869H175.295C175.339 25.9869 175.384 25.9424 175.384 25.8978V18.5494C175.384 18.4603 175.473 18.4158 175.517 18.5048L182.732 25.9869L182.777 26.0314H185.85C185.983 25.9424 186.028 25.8088 185.983 25.7642Z" fill="#1A1B2F"/>
</svg>
