<svg
                  className="w-full "
                  viewBox="0 0 40 40"
                  fill="white"
                  xmlns="http://www.w3.org/2000/svg"
                >
                  <path
                    d="M27.5781 3.79688C27.5156 3.8125 25.1563 4.21094 22.3438 4.6875C9.92969 6.79688 6.33594 7.42188 5.97656 7.53906C5.23438 7.78906 4.65625 8.15625 4.05469 8.75C3.57031 9.22656 3.39063 9.46875 3.10156 10.0781C2.4375 11.4531 2.46875 10.8984 2.46094 21.4062C2.46094 30.0078 2.46875 30.7031 2.60156 31.1719C2.82031 32.0078 3.24219 32.7734 3.80469 33.3594C4.44531 34.0469 5.01563 34.4219 5.85938 34.7188L6.52344 34.9609H19.9609H33.3984L34.0625 34.7188C34.9141 34.4141 35.4922 34.0312 36.1328 33.3438C36.6875 32.7422 37.1016 31.9922 37.3203 31.1719C37.4531 30.7031 37.4609 30.0469 37.4609 22.5C37.4609 14.9531 37.4531 14.2969 37.3203 13.8281C36.8672 12.1484 35.625 10.7969 34.0234 10.25L33.3984 10.0391L22.7344 10C14.8672 9.96875 12.0313 9.9375 11.9141 9.86719C11.4609 9.60938 11.2891 9.05469 11.5156 8.60938C11.7813 8.08594 11.0156 8.125 22.6953 8.14062L33.2813 8.16406V7.96094C33.2813 7.85156 33.2109 7.5625 33.125 7.3125C32.8438 6.49219 32.4844 5.92188 31.8359 5.27344C31.1016 4.53125 30.2578 4.07031 29.2813 3.875C28.7422 3.76562 27.8906 3.72656 27.5781 3.79688ZM29.8125 20.2422C30.2969 20.4766 30.7734 20.9453 31.0156 21.4453C31.1641 21.7656 31.2031 21.9609 31.2031 22.5C31.2109 23.1094 31.1875 23.2031 30.9453 23.6562C30.6563 24.1953 30.3203 24.5078 29.7656 24.7812C29.25 25.0312 28.2344 25.0234 27.6953 24.7656C25.6641 23.7812 25.8359 20.9062 27.9688 20.125C28.4531 19.9531 29.2969 20.0078 29.8125 20.2422Z"
                    fill="white"
                  ></path>
                </svg>