<svg width="184" height="40" viewBox="0 0 184 40" fill="none" xmlns="http://www.w3.org/2000/svg">
<rect width="40" height="40" rx="20" fill="url(#paint0_radial_548_7650)"/>
<path d="M15.9369 21.88C16.2095 21.88 16.4394 21.6968 16.5099 21.4462C16.8032 21.2427 18.0189 20.9113 19.999 20.9113C21.9795 20.9113 23.1948 21.2427 23.4885 21.4462C23.559 21.6968 23.789 21.88 24.0616 21.88C24.3903 21.88 24.6571 21.6137 24.6571 21.2849C24.6571 20.4137 23.4171 20.1177 23.0098 20.0207C22.1983 19.8271 21.1289 19.7207 19.999 19.7207C18.8691 19.7207 17.8002 19.8271 16.9887 20.0207C16.5813 20.1182 15.3418 20.4137 15.3418 21.2849C15.3418 21.6137 15.6081 21.88 15.9369 21.88Z" fill="#F7F7FF"/>
<path d="M12.361 32.0326C12.8736 32.0326 13.306 31.8421 13.4385 31.5815C13.9899 31.3699 16.2758 31.0252 19.9989 31.0252C23.7228 31.0252 26.0078 31.3699 26.56 31.5815C26.6926 31.8421 27.125 32.0326 27.6375 32.0326C28.2556 32.0326 28.7572 31.7557 28.7572 31.4138C28.7572 30.5077 26.4258 30.2 25.6599 30.0991C24.134 29.8978 22.1234 29.7871 19.9989 29.7871C17.8743 29.7871 15.8646 29.8978 14.3387 30.0991C13.5728 30.2004 11.2422 30.5077 11.2422 31.4138C11.2422 31.7557 11.7429 32.0326 12.361 32.0326Z" fill="#F7F7FF"/>
<path d="M12.361 29.14C12.8736 29.14 13.306 28.9495 13.4385 28.6889C13.9899 28.4773 16.2758 28.1326 19.9989 28.1326C23.7228 28.1326 26.0078 28.4773 26.56 28.6889C26.6926 28.9495 27.125 29.14 27.6375 29.14C28.2556 29.14 28.7572 28.8631 28.7572 28.5212C28.7572 27.6152 26.4258 27.3074 25.6599 27.2065C24.134 27.0052 22.1234 26.8945 19.9989 26.8945C17.8743 26.8945 15.8646 27.0052 14.3387 27.2065C13.5728 27.3079 11.2422 27.6152 11.2422 28.5212C11.2422 28.8631 11.7429 29.14 12.361 29.14Z" fill="#F7F7FF"/>
<path d="M12.3649 26.2474C12.8775 26.2474 13.5797 25.8323 13.7123 25.5717C14.2637 25.3601 16.2758 25.0155 19.9989 25.0155C23.7228 25.0155 25.7349 25.3601 26.2872 25.5717C26.4197 25.8323 27.1219 26.2474 27.6345 26.2474C28.2526 26.2474 28.5327 25.9136 28.5327 25.5717C28.5327 24.6656 26.4258 24.1902 25.6599 24.0893C24.134 23.888 22.1234 23.7773 19.9989 23.7773C17.8743 23.7773 15.8646 23.888 14.3387 24.0893C13.5728 24.1907 11.2422 24.6656 11.2422 25.5717C11.2422 25.9136 11.7468 26.2474 12.3649 26.2474Z" fill="#F7F7FF"/>
<path d="M15.9369 19.0751C16.2638 19.0751 16.5283 18.8123 16.5324 18.4863C16.6181 18.2483 17.7602 17.6613 19.999 17.6613C22.2378 17.6613 23.3799 18.2483 23.4665 18.4863C23.4701 18.8123 23.7351 19.0751 24.0616 19.0751C24.3903 19.0751 24.6571 18.8087 24.6571 18.48C24.6571 17.0923 22.3177 16.4707 19.999 16.4707C17.6812 16.4707 15.3418 17.0923 15.3418 18.48C15.3418 18.8087 15.6081 19.0751 15.9369 19.0751Z" fill="#F7F7FF"/>
<path d="M17.5575 14.5738C17.8458 14.5738 18.0866 14.3686 18.1413 14.0964C18.321 13.9567 18.9928 13.7281 19.997 13.7281C21.0012 13.7281 21.6731 13.9572 21.8532 14.0964C21.908 14.3686 22.1487 14.5738 22.437 14.5738C22.7658 14.5738 23.0325 14.307 23.0325 13.9783C23.0325 13.3388 22.4258 12.9943 21.9174 12.8178C21.396 12.6368 20.7138 12.5371 19.9975 12.5371C19.2812 12.5371 18.5999 12.6368 18.0776 12.8178C17.5692 12.9943 16.9629 13.3388 16.9629 13.9783C16.962 14.307 17.2288 14.5738 17.5575 14.5738Z" fill="#F7F7FF"/>
<path d="M17.7533 11.8902C18.082 11.8902 18.3488 11.6235 18.3488 11.2952C18.3488 11.045 18.9753 10.5865 19.9983 10.5865C21.0218 10.5865 21.6483 11.045 21.6483 11.2952C21.6483 11.6235 21.9151 11.8902 22.2439 11.8902C22.5721 11.8902 22.8389 11.6235 22.8389 11.2952C22.8389 10.3673 21.8918 9.61417 20.5938 9.43587V5.44514C20.5938 5.11684 20.3271 4.77148 19.9983 4.77148C19.67 4.77148 19.4033 5.11684 19.4033 5.44514V9.43632C18.1054 9.61417 17.1582 10.3673 17.1582 11.2956C17.1578 11.6239 17.4245 11.8902 17.7533 11.8902Z" fill="#F7F7FF"/>
<path d="M48.696 28L54.6 10.312H57.672L63.576 28H61.056L59.496 23.368H52.728L51.192 28H48.696ZM53.304 21.184H58.896L56.112 12.424L53.304 21.184ZM70.6581 28.144C69.2981 28.144 68.2101 27.944 67.3941 27.544C66.5941 27.144 66.0181 26.472 65.6661 25.528C65.3301 24.568 65.1621 23.248 65.1621 21.568C65.1621 19.856 65.3301 18.528 65.6661 17.584C66.0181 16.624 66.5941 15.952 67.3941 15.568C68.1941 15.184 69.2741 14.992 70.6341 14.992C71.8181 14.992 72.7701 15.12 73.4901 15.376C74.2261 15.616 74.7621 16.056 75.0981 16.696C75.4501 17.32 75.6261 18.192 75.6261 19.312C75.6261 20.096 75.4661 20.72 75.1461 21.184C74.8421 21.648 74.4021 21.984 73.8261 22.192C73.2661 22.4 72.5941 22.504 71.8101 22.504H67.5621C67.5781 23.432 67.6821 24.176 67.8741 24.736C68.0821 25.28 68.4421 25.68 68.9541 25.936C69.4821 26.176 70.2501 26.296 71.2581 26.296H75.2661V27.736C74.5781 27.832 73.8741 27.92 73.1541 28C72.4341 28.096 71.6021 28.144 70.6581 28.144ZM67.5381 20.992H71.5941C72.2341 20.992 72.7061 20.872 73.0101 20.632C73.3141 20.392 73.4661 19.952 73.4661 19.312C73.4661 18.672 73.3701 18.168 73.1781 17.8C73.0021 17.432 72.7061 17.168 72.2901 17.008C71.8741 16.848 71.3221 16.768 70.6341 16.768C69.8501 16.768 69.2261 16.888 68.7621 17.128C68.3141 17.368 67.9941 17.792 67.8021 18.4C67.6261 19.008 67.5381 19.872 67.5381 20.992ZM78.555 28V15.16H80.403L80.955 17.32C81.499 16.664 82.107 16.112 82.779 15.664C83.451 15.216 84.235 14.992 85.131 14.992C85.339 14.992 85.539 15.008 85.731 15.04C85.923 15.056 86.107 15.088 86.283 15.136V17.608C86.059 17.576 85.827 17.552 85.587 17.536C85.347 17.504 85.099 17.488 84.843 17.488C84.299 17.488 83.811 17.552 83.379 17.68C82.947 17.808 82.531 18.008 82.131 18.28C81.747 18.536 81.355 18.856 80.955 19.24V28H78.555ZM93.7714 28.144C92.7954 28.144 91.9474 28.04 91.2274 27.832C90.5234 27.624 89.9394 27.28 89.4754 26.8C89.0114 26.304 88.6674 25.632 88.4434 24.784C88.2194 23.936 88.1074 22.864 88.1074 21.568C88.1074 20.224 88.2194 19.128 88.4434 18.28C88.6674 17.416 89.0114 16.744 89.4754 16.264C89.9394 15.784 90.5314 15.456 91.2514 15.28C91.9714 15.088 92.8114 14.992 93.7714 14.992C94.7314 14.992 95.5714 15.088 96.2914 15.28C97.0114 15.472 97.6034 15.808 98.0674 16.288C98.5314 16.768 98.8754 17.44 99.0994 18.304C99.3234 19.152 99.4354 20.24 99.4354 21.568C99.4354 22.88 99.3234 23.968 99.0994 24.832C98.8754 25.68 98.5314 26.344 98.0674 26.824C97.6194 27.304 97.0354 27.648 96.3154 27.856C95.5954 28.048 94.7474 28.144 93.7714 28.144ZM93.7714 26.176C94.2994 26.176 94.7634 26.128 95.1634 26.032C95.5794 25.936 95.9234 25.736 96.1954 25.432C96.4674 25.112 96.6754 24.64 96.8194 24.016C96.9634 23.392 97.0354 22.568 97.0354 21.544C97.0354 20.52 96.9634 19.704 96.8194 19.096C96.6754 18.472 96.4674 18.008 96.1954 17.704C95.9234 17.4 95.5794 17.2 95.1634 17.104C94.7634 16.992 94.2994 16.936 93.7714 16.936C93.2274 16.936 92.7474 16.992 92.3314 17.104C91.9314 17.2 91.5954 17.4 91.3234 17.704C91.0674 18.008 90.8674 18.472 90.7234 19.096C90.5954 19.704 90.5314 20.52 90.5314 21.544C90.5314 22.568 90.5954 23.392 90.7234 24.016C90.8674 24.64 91.0674 25.112 91.3234 25.432C91.5954 25.736 91.9314 25.936 92.3314 26.032C92.7474 26.128 93.2274 26.176 93.7714 26.176ZM106.855 28.144C106.52 28.144 106.12 28.136 105.656 28.12C105.192 28.104 104.712 28.072 104.215 28.024C103.736 27.992 103.288 27.952 102.872 27.904C102.472 27.856 102.152 27.8 101.912 27.736V26.296H107.312C107.776 26.296 108.176 26.264 108.512 26.2C108.848 26.12 109.104 25.96 109.28 25.72C109.472 25.48 109.568 25.128 109.568 24.664V24.136C109.568 23.656 109.408 23.28 109.088 23.008C108.768 22.736 108.24 22.6 107.504 22.6H105.632C104.88 22.6 104.208 22.504 103.616 22.312C103.04 22.104 102.584 21.76 102.248 21.28C101.928 20.8 101.768 20.152 101.768 19.336V18.64C101.768 17.824 101.92 17.152 102.224 16.624C102.544 16.096 103.048 15.704 103.736 15.448C104.424 15.176 105.336 15.04 106.472 15.04C106.952 15.04 107.48 15.064 108.056 15.112C108.648 15.144 109.224 15.192 109.784 15.256C110.344 15.32 110.792 15.392 111.128 15.472V16.912H106.04C105.336 16.912 104.792 17.032 104.408 17.272C104.039 17.512 103.855 17.968 103.855 18.64V19.12C103.855 19.536 103.944 19.856 104.12 20.08C104.296 20.304 104.544 20.448 104.864 20.512C105.2 20.576 105.592 20.608 106.04 20.608H107.96C109.176 20.608 110.096 20.896 110.72 21.472C111.344 22.032 111.656 22.824 111.656 23.848V24.832C111.656 25.696 111.456 26.368 111.056 26.848C110.656 27.328 110.096 27.664 109.376 27.856C108.672 28.048 107.832 28.144 106.855 28.144ZM119.167 28.144C118.415 28.144 117.719 28.048 117.079 27.856C116.455 27.648 115.903 27.304 115.423 26.824C114.959 26.344 114.599 25.68 114.343 24.832C114.087 23.984 113.959 22.912 113.959 21.616C113.959 20.288 114.079 19.2 114.319 18.352C114.559 17.488 114.903 16.816 115.351 16.336C115.815 15.84 116.375 15.496 117.031 15.304C117.687 15.112 118.423 15.016 119.239 15.016C119.911 15.016 120.615 15.048 121.351 15.112C122.103 15.176 122.831 15.28 123.535 15.424V16.84H119.911C119.127 16.84 118.471 16.968 117.943 17.224C117.415 17.464 117.023 17.936 116.767 18.64C116.511 19.328 116.383 20.328 116.383 21.64C116.383 22.904 116.519 23.88 116.791 24.568C117.063 25.24 117.455 25.696 117.967 25.936C118.495 26.176 119.151 26.296 119.935 26.296H123.727V27.664C123.359 27.76 122.919 27.848 122.407 27.928C121.911 27.992 121.383 28.04 120.823 28.072C120.279 28.12 119.727 28.144 119.167 28.144ZM126.157 28V15.16H128.005L128.557 17.32C129.101 16.664 129.709 16.112 130.381 15.664C131.053 15.216 131.837 14.992 132.733 14.992C132.941 14.992 133.141 15.008 133.333 15.04C133.525 15.056 133.709 15.088 133.885 15.136V17.608C133.661 17.576 133.429 17.552 133.189 17.536C132.949 17.504 132.701 17.488 132.445 17.488C131.901 17.488 131.413 17.552 130.981 17.68C130.549 17.808 130.133 18.008 129.733 18.28C129.349 18.536 128.957 18.856 128.557 19.24V28H126.157ZM138.24 28.144C137.296 28.144 136.512 27.864 135.888 27.304C135.28 26.728 134.976 25.936 134.976 24.928V23.92C134.976 22.928 135.312 22.12 135.984 21.496C136.672 20.856 137.704 20.536 139.08 20.536H143.088V19.192C143.088 18.696 143 18.28 142.824 17.944C142.664 17.592 142.36 17.328 141.912 17.152C141.464 16.976 140.8 16.888 139.92 16.888H135.984V15.472C136.56 15.344 137.232 15.232 138 15.136C138.784 15.04 139.696 14.984 140.736 14.968C141.792 14.968 142.672 15.104 143.376 15.376C144.096 15.632 144.632 16.064 144.984 16.672C145.336 17.264 145.512 18.056 145.512 19.048V28H143.616L143.208 26.584C143.112 26.648 142.912 26.768 142.608 26.944C142.304 27.104 141.912 27.28 141.432 27.472C140.968 27.664 140.456 27.824 139.896 27.952C139.352 28.08 138.8 28.144 138.24 28.144ZM139.344 26.392C139.584 26.408 139.864 26.384 140.184 26.32C140.52 26.256 140.848 26.184 141.168 26.104C141.504 26.008 141.808 25.912 142.08 25.816C142.368 25.72 142.6 25.64 142.776 25.576C142.968 25.496 143.072 25.448 143.088 25.432V21.736L139.728 21.88C138.896 21.928 138.296 22.136 137.928 22.504C137.576 22.872 137.4 23.352 137.4 23.944V24.52C137.4 24.984 137.496 25.36 137.688 25.648C137.88 25.92 138.12 26.112 138.408 26.224C138.712 26.336 139.024 26.392 139.344 26.392ZM148.774 33.688V15.16H150.742L151.174 16.456C151.478 16.232 151.838 16.008 152.254 15.784C152.686 15.56 153.15 15.376 153.646 15.232C154.158 15.072 154.67 14.992 155.182 14.992C155.998 14.992 156.694 15.16 157.27 15.496C157.862 15.832 158.342 16.304 158.71 16.912C159.078 17.504 159.342 18.2 159.502 19C159.678 19.8 159.766 20.656 159.766 21.568C159.766 22.992 159.606 24.2 159.286 25.192C158.982 26.168 158.494 26.912 157.822 27.424C157.166 27.92 156.286 28.168 155.182 28.168C154.51 28.168 153.822 28.072 153.118 27.88C152.414 27.672 151.766 27.4 151.174 27.064V33.688H148.774ZM154.462 26.152C155.006 26.152 155.494 26.016 155.926 25.744C156.358 25.472 156.702 25.008 156.958 24.352C157.23 23.68 157.366 22.752 157.366 21.568C157.366 20.448 157.23 19.552 156.958 18.88C156.686 18.192 156.334 17.704 155.902 17.416C155.47 17.112 154.998 16.96 154.486 16.96C153.814 16.96 153.198 17.064 152.638 17.272C152.094 17.48 151.606 17.696 151.174 17.92V25.24C151.67 25.512 152.198 25.736 152.758 25.912C153.334 26.072 153.902 26.152 154.462 26.152ZM167.76 28.144C166.4 28.144 165.312 27.944 164.496 27.544C163.696 27.144 163.12 26.472 162.768 25.528C162.432 24.568 162.264 23.248 162.264 21.568C162.264 19.856 162.432 18.528 162.768 17.584C163.12 16.624 163.696 15.952 164.496 15.568C165.296 15.184 166.376 14.992 167.736 14.992C168.92 14.992 169.872 15.12 170.592 15.376C171.328 15.616 171.864 16.056 172.2 16.696C172.552 17.32 172.728 18.192 172.728 19.312C172.728 20.096 172.568 20.72 172.248 21.184C171.944 21.648 171.504 21.984 170.928 22.192C170.368 22.4 169.696 22.504 168.912 22.504H164.664C164.68 23.432 164.784 24.176 164.976 24.736C165.184 25.28 165.544 25.68 166.056 25.936C166.584 26.176 167.352 26.296 168.36 26.296H172.368V27.736C171.68 27.832 170.976 27.92 170.256 28C169.536 28.096 168.704 28.144 167.76 28.144ZM164.64 20.992H168.696C169.336 20.992 169.808 20.872 170.112 20.632C170.416 20.392 170.568 19.952 170.568 19.312C170.568 18.672 170.472 18.168 170.28 17.8C170.104 17.432 169.808 17.168 169.392 17.008C168.976 16.848 168.424 16.768 167.736 16.768C166.952 16.768 166.328 16.888 165.864 17.128C165.416 17.368 165.096 17.792 164.904 18.4C164.728 19.008 164.64 19.872 164.64 20.992ZM175.657 28V15.16H177.505L178.057 17.32C178.601 16.664 179.209 16.112 179.881 15.664C180.553 15.216 181.337 14.992 182.233 14.992C182.441 14.992 182.641 15.008 182.833 15.04C183.025 15.056 183.209 15.088 183.385 15.136V17.608C183.161 17.576 182.929 17.552 182.689 17.536C182.449 17.504 182.201 17.488 181.945 17.488C181.401 17.488 180.913 17.552 180.481 17.68C180.049 17.808 179.633 18.008 179.233 18.28C178.849 18.536 178.457 18.856 178.057 19.24V28H175.657Z" fill="#F7F7FF"/>
<defs>
<radialGradient id="paint0_radial_548_7650" cx="0" cy="0" r="1" gradientUnits="userSpaceOnUse" gradientTransform="translate(29.6875 -5) rotate(129.075) scale(47.0974 156.699)">
<stop stop-color="#F8B810"/>
<stop offset="0.515625" stop-color="#E4462D"/>
<stop offset="1" stop-color="#56235C"/>
</radialGradient>
</defs>
</svg>
