<?xml version="1.0" encoding="UTF-8"?>
<svg width="2000px" height="800px" viewBox="0 0 2000 800" version="1.1" xmlns="http://www.w3.org/2000/svg" xmlns:xlink="http://www.w3.org/1999/xlink">
    <title>BEVM_左右</title>
    <defs>
        <linearGradient x1="0%" y1="50.0303895%" x2="99.990685%" y2="50.0303895%" id="linearGradient-1">
            <stop stop-color="#997D4C" offset="18%"></stop>
            <stop stop-color="#AA8C52" offset="91%"></stop>
            <stop stop-color="#AC8E53" offset="98%"></stop>
        </linearGradient>
    </defs>
    <g id="BEVM_左右" stroke="none" stroke-width="1" fill="none" fill-rule="evenodd">
        <g id="BEVM-LOGO" transform="translate(200, 96)">
            <rect id="矩形" fill="#D8D8D8" opacity="0" x="0" y="0" width="1600" height="608"></rect>
            <path d="M806.864914,391.698605 L714.082662,391.698605 L759.430321,194.951017 L848.35253,194.951017 C890.572403,196.262143 909.401881,212.415217 904.840963,243.410239 C899.924377,264.734395 887.235401,279.272161 866.774035,287.023539 C885.94872,296.086043 894.123852,310.948969 891.29943,331.612316 C882.041604,371.669842 853.896765,391.698605 806.864914,391.698605 Z M832.849593,232.790117 L799.019298,232.790117 L789.87131,272.517239 L823.76437,272.517239 C839.382376,271.887899 849.074326,264.781595 852.840222,251.198328 C854.963769,238.90521 848.300226,232.75865 832.849593,232.75865 L832.849593,232.790117 Z M818.853015,310.309139 L781.194059,310.309139 L771.151671,353.922439 L808.810626,353.922439 C826.981072,353.293098 838.03293,345.86688 841.966198,331.643783 C843.796842,318.050028 836.092448,310.92799 818.853015,310.277672 L818.853015,310.309139 Z" id="形状" fill="#fff" fill-rule="nonzero"></path>
            <polygon id="路径" fill="#fff" fill-rule="nonzero" points="1053.34278 391.698605 906.425777 391.698605 951.742054 195.029685 1095.75618 195.029685 1086.34144 235.732284 992.633403 235.732284 983.924769 273.492717 1070.91696 273.492717 1061.75328 313.219839 974.76109 313.219839 966.052457 350.980272 1062.71044 350.980272"></polygon>
            <polygon id="路径" fill="#fff" fill-rule="nonzero" points="1296.79223 194.951017 1185.74539 391.619937 1137.4164 391.619937 1116.06063 194.951017 1167.27681 194.951017 1175.49901 335.482761 1245.57605 194.951017"></polygon>
            <polygon id="路径" fill="#fff" fill-rule="nonzero" points="1474.74649 391.698605 1428.34752 391.698605 1457.3763 265.704628 1465.70834 233.655461 1451.13119 267.576916 1397.4201 391.635671 1350.06396 391.635671 1353.95539 265.641694 1355.30483 234.630938 1349.42062 264.72915 1320.17217 391.698605 1272.73758 391.698605 1318.03816 194.951017 1393.35607 194.951017 1387.07958 319.009772 1384.16101 344.183394 1393.8425 319.009772 1444.68209 194.951017 1520 194.951017"></polygon>
            <g id="编组-23" transform="translate(80, 48)" fill-rule="nonzero">
                <g id="编组">
                    <polygon id="路径" fill="#B0915A" points="220.650096 0 275.286964 34.4563948 232.873566 178.685514 178.252389 144.229119"></polygon>
                    <polygon id="路径" fill="#B0915A" points="156.049297 219.749985 210.670473 254.206379 157.304595 435.818327 102.667727 401.361932"></polygon>
                    <path d="M309.321245,76.4176756 C305.14057,73.8128294 300.309384,72.4490332 295.387432,72.4842972 L217.025422,72.4842972 L271.66229,106.987893 L350.0243,106.987893 C354.970686,106.921261 359.832807,108.275186 364.036569,110.889804 L309.321245,76.4176756 Z" id="路径" fill="#997D4C"></path>
                    <polygon id="路径" fill="#997D4C" points="247.466411 219.749985 302.087588 254.206379 210.670473 254.206379 156.049297 219.749985"></polygon>
                    <polygon id="路径" fill="#AB8E56" points="289.236469 144.229119 343.873337 178.685514 302.087588 254.206379 247.466411 219.749985"></polygon>
                    <path d="M462.891327,131.028701 C462.750106,128.118001 462.530429,125.207301 462.169531,122.343802 L462.169531,122.076332 C461.698794,118.468113 461.060684,114.917583 460.2552,111.424743 C460.035523,110.480733 459.721699,109.583922 459.48633,108.639911 C458.827298,106.106816 458.121193,103.589454 457.289558,101.135026 C457.179719,100.820355 457.116954,100.489951 457.007116,100.175281 C456.708982,99.3256714 456.30101,98.6019298 455.987185,97.7051195 C455.124168,95.4080266 454.198385,93.1266671 453.178455,90.9239752 C452.613571,89.6810276 452.001613,88.469547 451.389655,87.2580665 C450.322651,85.1969762 449.208574,83.167353 448.01604,81.1849302 C447.608068,80.5083892 447.294243,79.768914 446.87058,79.1081064 C446.446917,78.4472989 445.882032,77.6606232 445.395604,76.9368816 L444.140306,75.080327 C442.571183,72.783234 440.845147,70.517608 439.040656,68.3621166 L438.962199,68.2677156 C436.748783,65.6420035 434.396974,63.136801 431.916836,60.7628296 L431.634394,60.4638928 C430.567391,59.4412144 429.390548,58.5444042 428.276471,57.5689263 C427.162393,56.5934485 425.875712,55.4134349 424.604723,54.4222236 L424.275207,54.1390203 C421.931983,52.3349108 419.505072,50.6356913 416.994475,49.0413619 L362.232078,14.5849671 C364.868205,16.2527196 367.410184,18.0620736 369.842325,19.9658288 C371.129006,20.9727736 372.321539,22.0741196 373.545456,23.1125315 C374.769372,24.1509434 376.008979,25.1578883 377.154439,26.2592342 C379.634576,28.6332057 381.986385,31.1384082 384.199802,33.7641202 C386.035676,35.9510786 387.74602,38.2324381 389.377908,40.5767316 C389.817263,41.1903386 390.225235,41.8196792 390.648898,42.4490197 C391.558989,43.8178354 392.406316,45.2495852 393.253642,46.6813349 C394.446176,48.6637576 395.570714,50.6933809 396.627257,52.7702047 C397.239215,53.9659517 397.851173,55.1774322 398.416057,56.4046463 C399.451679,58.6230717 400.36177,60.9044312 401.240479,63.2015242 C401.664142,64.3500707 402.134879,65.4671501 402.52716,66.6314302 C403.374486,69.0858583 404.096283,71.6032205 404.723932,74.1520497 C404.959301,75.080327 405.273125,75.9771372 405.492803,76.9211481 C406.314833,80.4359605 406.953808,83.991302 407.407133,87.5727368 C407.799414,90.5306373 408.034782,93.5200049 408.176003,96.525106 C408.176003,97.075779 408.176003,97.626452 408.254459,98.1928585 C408.348607,101.166493 408.332916,104.171594 408.254459,107.176695 C408.254459,107.727368 408.254459,108.278041 408.160312,108.844447 C407.987709,111.739414 407.705266,114.665847 407.297294,117.592281 C407.297294,117.922685 407.297294,118.268822 407.171765,118.614959 C406.701028,121.761662 406.073378,124.908365 405.33589,128.180935 C405.210361,128.715875 405.084831,129.235081 404.94361,129.754287 C404.221813,132.712187 403.374486,135.654354 402.385939,138.596521 C401.836746,140.169873 401.177714,141.853359 400.565756,143.489644 C399.953798,145.12593 399.184928,147.202753 398.384675,149.059308 C397.757026,150.491058 397.019538,151.922807 396.329124,153.354557 C395.183664,155.746051 394.069586,158.074611 392.735832,160.513306 L353.20962,231.030914 L344.736355,244.750538 C344.814811,244.750538 345.003106,245.080942 345.222783,245.379878 L345.505225,245.741749 L346.227022,246.717227 C346.368243,246.921763 346.540846,247.173499 346.71345,247.393768 L347.654924,248.74685 L348.298264,249.690861 C348.659162,250.225801 349.035752,250.823674 349.428033,251.437281 L350.149829,252.554361 C350.934391,253.813042 351.718953,255.197591 352.660426,256.723742 C352.785956,256.959744 352.927177,257.227214 353.068399,257.463217 C353.837269,258.816299 354.637522,260.295249 355.422083,261.837134 C355.657452,262.293405 355.89282,262.749677 356.128189,263.237416 C357.053971,265.093971 357.995445,267.06066 358.921228,269.153217 C359.015375,269.38922 359.109523,269.65669 359.219361,269.892693 C360.035305,271.780714 360.788484,273.77887 361.588737,275.855694 C361.839797,276.563702 362.106548,277.27171 362.357608,277.995452 C362.702815,278.955196 363.016639,279.946408 363.346155,280.937619 C363.675671,281.92883 363.926731,282.77844 364.193482,283.722451 C364.460233,284.666462 364.774057,285.799275 365.056499,286.869154 C365.338941,287.939033 365.558619,288.804376 365.793987,289.811321 C366.029356,290.818266 366.280415,291.998279 366.500093,293.115359 C366.71977,294.232438 366.908065,295.144982 367.096359,296.262061 C367.284654,297.379141 367.457258,298.574888 367.629861,299.739168 C367.802465,300.903448 367.896612,301.737324 368.006451,302.760002 C368.304584,305.450433 368.539953,308.188065 368.618409,311.004364 L423.255277,345.460758 C423.176821,342.644459 422.941452,339.906828 422.643319,337.216397 C422.643319,336.933194 422.643319,336.634257 422.643319,336.351054 C422.549171,335.611579 422.423641,334.919304 422.313803,334.179829 C422.156891,333.031283 421.984287,331.867003 421.795992,330.73419 C421.607697,329.601377 421.403711,328.657366 421.199725,327.587487 C420.995739,326.517608 420.74468,325.384795 420.49362,324.299183 C420.24256,323.21357 420.007192,322.31676 419.756132,321.357016 C419.505072,320.397271 419.191248,319.264458 418.893114,318.210313 C418.594981,317.156167 418.32823,316.322291 418.030097,315.409747 C417.731963,314.497204 417.386756,313.443058 417.05724,312.483314 C416.93171,312.10571 416.806181,311.696638 416.680651,311.334767 C416.555121,310.972897 416.4139,310.67396 416.272679,310.327823 C415.5195,308.250999 414.703556,306.252842 413.903303,304.364821 C413.809155,304.128818 413.715008,303.861348 413.605169,303.641079 C412.695078,301.532788 411.753604,299.566099 410.827821,297.709545 L410.106025,296.309262 C409.321463,294.735911 408.536902,293.288427 407.768031,291.935345 L407.360059,291.211603 C406.465659,289.638252 405.634024,288.28517 404.833771,287.010755 L404.629785,286.680352 L404.143357,285.925143 L402.997897,284.162989 L402.338865,283.203245 C402.009349,282.715506 401.695525,282.290701 401.413083,281.88163 L400.910963,281.189355 L400.204858,280.213877 L399.922416,279.852007 L399.435987,279.222666 L407.909252,265.503042 L447.309935,195.095569 C447.827745,194.167292 448.329865,193.239014 448.879058,192.32647 C449.647928,190.863254 450.259886,189.400037 450.965991,187.93682 C451.672097,186.473603 452.378202,185.073321 453.005852,183.641571 C453.178455,183.2797 453.382441,182.917829 453.539353,182.540225 C454.167003,181.061275 454.63774,179.566591 455.202624,178.071907 C455.767508,176.577223 456.473614,174.81507 457.022807,173.194518 C457.116954,172.864114 457.273866,172.549444 457.368014,172.21904 C458.21534,169.607277 458.937137,166.964046 459.580477,164.352283 C459.706007,163.833077 459.847228,163.313871 459.957067,162.778932 C460.066906,162.243992 460.317965,161.394383 460.459186,160.702108 C460.992688,158.200479 461.447734,155.698851 461.808632,153.212956 C461.808632,152.866818 461.887089,152.536414 461.934162,152.190277 C462.200913,150.255055 462.451973,148.335566 462.608885,146.416078 C462.703033,145.424866 462.734415,144.433655 462.79718,143.442444 L462.891327,141.774691 C463.032548,138.76959 463.04824,135.764489 462.891327,132.790855 C462.891327,132.161514 462.891327,131.579374 462.891327,131.028701 Z" id="路径" fill="#B29257"></path>
                    <polygon id="路径" fill="#997D4C" points="368.555644 310.94143 423.192512 345.413558 264.004969 345.413558 209.368101 310.94143"></polygon>
                    <path d="M505.257652,333.267285 C505.257652,330.970192 505.163505,328.673099 505.022284,326.39174 C505.022284,325.683732 505.022284,324.991457 504.912445,324.299183 C504.739842,321.624485 504.504473,318.965521 504.190648,316.322291 C504.190648,316.133489 504.190648,315.944687 504.112192,315.755885 C503.923898,314.182533 503.657147,312.609182 503.421778,311.035831 C503.18641,309.462479 502.951041,307.76326 502.652908,306.142708 C502.354774,304.522156 502.025259,302.996005 501.695743,301.532788 C501.366227,300.069572 501.052402,298.307418 500.660121,296.7026 C500.267841,295.097781 499.859869,293.681765 499.451897,292.171348 C499.043925,290.66093 498.620261,289.024645 498.149524,287.451294 C497.678787,285.877942 497.176668,284.47766 496.69024,282.998709 C496.203812,281.519759 495.858605,280.308279 495.387868,279.002397 C495.309411,278.797861 495.215264,278.609059 495.152499,278.404523 C494.571924,276.831172 493.944274,275.257821 493.348008,273.77887 C492.751741,272.29992 492.249621,270.915371 491.637663,269.515088 C491.025705,268.114805 490.288217,266.509987 489.597803,265.015303 C488.907389,263.52062 488.358196,262.246205 487.683473,260.877389 C487.00875,259.508574 486.11435,257.982423 485.408244,256.534939 C484.702139,255.087456 484.027416,253.844509 483.289928,252.538627 C482.55244,251.232745 481.642349,249.722328 480.795022,248.337779 C479.947696,246.95323 479.461268,246.024952 478.755162,244.907873 C478.685852,244.786501 478.607155,244.670767 478.519794,244.561736 C476.668229,241.635302 474.738207,238.80327 472.729729,236.034171 C472.243301,235.341897 471.709799,234.696823 471.160606,234.020281 C469.591483,231.959191 468.02236,229.929568 466.453237,227.962879 C466.186486,227.632475 465.951117,227.270604 465.668675,226.955934 C464.978261,226.137791 464.256464,225.382583 463.550359,224.56444 C462.640268,223.510294 461.730176,222.471882 460.788702,221.417737 C459.847228,220.363592 458.639004,219.152111 457.556309,218.050765 C456.473614,216.949419 455.641978,216.084076 454.669122,215.155799 C454.38668,214.872595 454.119929,214.573659 453.837487,214.306189 C452.268364,212.811505 450.699241,211.348288 449.020279,209.932272 L394.383411,175.475877 C396.313432,177.14363 398.180689,178.905783 400.032254,180.68367 C401.005111,181.627681 401.962276,182.618893 402.90375,183.578637 C403.845223,184.538381 405.100522,185.812796 406.167526,186.961342 C407.234529,188.109889 408.0034,189.022433 408.913491,190.108045 C409.823583,191.193657 410.874895,192.357937 411.83206,193.522217 C413.443027,195.494151 415.01215,197.508041 416.53943,199.563887 C417.05724,200.256161 417.590742,200.901235 418.108553,201.59351 C420.096109,204.362608 422.0209,207.199885 423.882926,210.105341 C424.683179,211.364022 425.452049,212.669904 426.205228,213.960052 C426.958407,215.2502 427.868499,216.681949 428.65306,218.082232 C429.437622,219.482515 430.096654,220.772663 430.802759,222.125745 C431.508864,223.478827 432.371882,224.973511 433.046605,226.436728 C433.721328,227.899945 434.333286,229.205826 434.976627,230.590376 C435.619967,231.974925 436.357455,233.548276 437.016487,235.058693 C437.675518,236.569111 438.161947,237.922193 438.726831,239.369676 C439.291715,240.817159 439.950747,242.406244 440.515631,243.948129 C441.080516,245.490013 441.551253,247.094831 442.084754,248.573782 C442.618256,250.052732 443.104684,251.515949 443.544039,253.010632 C443.983393,254.505316 444.422748,256.157335 444.846411,257.730686 C445.270074,259.304038 445.693738,260.751521 446.054636,262.277672 C446.415534,263.803823 446.74505,265.424375 447.090257,266.997726 C447.435464,268.571077 447.76498,270.144429 448.047422,271.71778 C448.329865,273.291131 448.565233,274.864483 448.800601,276.563702 C449.03597,278.262922 449.318412,279.710405 449.506707,281.283756 C449.851914,284.100055 450.118665,286.947821 450.322651,289.795587 C450.322651,290.503595 450.322651,291.211603 450.43249,291.903878 C450.558019,294.200971 450.636476,296.482331 450.667858,298.779424 C450.667858,299.6133 450.667858,300.447176 450.667858,301.281052 C450.667858,304.223219 450.667858,307.165386 450.416798,310.123287 C450.197121,313.836396 449.820532,317.518038 449.396868,321.136746 C449.083044,323.905845 448.690763,326.674943 448.235717,329.412575 C448.094496,330.325118 447.89051,331.237662 447.733598,332.150206 C447.404082,333.95956 447.090257,335.784648 446.697976,337.578268 C446.525373,338.427878 446.305696,339.261754 446.10171,340.127097 C445.678046,342.030852 445.223001,343.950341 444.736573,345.854096 C444.45413,346.908242 444.140306,347.946654 443.842172,349.000799 C443.371435,350.668551 442.900698,352.336304 442.367197,353.988323 C441.974916,355.23127 441.551253,356.474218 441.127589,357.717166 C440.703926,358.960113 440.264572,360.265995 439.809526,361.524676 C439.35448,362.783357 438.868052,364.010571 438.381624,365.253519 C437.895196,366.496466 437.408767,367.739414 436.890957,368.982361 C436.608515,369.658902 436.310381,370.31971 436.012248,370.996251 C434.207756,375.197099 432.262044,379.335013 430.143727,383.362793 C429.908359,383.803331 429.657299,384.228136 429.421931,384.652941 C427.235619,388.743654 424.908086,392.739967 422.439333,396.641878 L421.843066,397.507221 C419.206939,401.597935 416.41913,405.56278 413.47964,409.401758 C413.307036,409.63776 413.118741,409.85803 412.946138,410.078299 C409.807891,414.137545 406.502272,418.049946 403.029279,421.8155 C402.433013,422.460574 401.821055,423.089915 401.224788,423.719255 C399.906724,425.119538 398.57297,426.488354 397.207833,427.841436 L394.869839,430.107062 C393.551776,431.350009 392.218021,432.592957 390.868575,433.804437 L388.609038,435.818327 C386.082749,438.005285 383.525079,440.145043 380.904643,442.111733 C380.810496,442.1904 380.716348,442.237601 380.637892,442.316268 C378.080221,444.282957 375.459786,446.155246 372.792276,447.980333 L370.658269,449.412083 C367.661244,451.410239 364.632836,453.345461 361.525972,455.139082 L361.133691,455.359351 C358.120975,457.090037 355.061185,458.710589 351.93863,460.268207 L349.77324,461.338086 C346.634994,462.911438 343.355526,464.31172 340.076059,465.649069 L338.506936,466.246942 C335.541293,467.411222 332.528577,468.481101 329.500169,469.488046 L327.460309,470.164587 C324.086694,471.218733 320.666006,472.162744 317.229626,472.99662 L315.048545,473.500092 C311.910298,474.223834 308.714518,474.853174 305.461202,475.388114 C304.959083,475.388114 304.472655,475.576916 303.986227,475.63985 C300.440008,476.206257 296.846716,476.615328 293.253424,476.914265 C292.427019,476.987688 291.595384,477.050622 290.758518,477.103067 C287.071079,477.370537 283.367948,477.543605 279.633435,477.543605 L0,477.543605 L54.6368679,512 L334.22323,512 C337.957743,512 341.660873,511.826931 345.348313,511.559462 C346.195639,511.559462 347.011583,511.449327 347.843218,511.370659 C351.452202,511.071723 355.045494,510.662651 358.591712,510.111978 L360.050997,509.844509 C363.28339,509.309569 366.46871,508.680229 369.65403,507.956487 L371.81942,507.453015 C375.271491,506.613894 378.686949,505.669883 382.065794,504.620982 L384.089963,503.944441 C387.134062,502.958474 390.141548,501.878106 393.112421,500.703337 L394.681544,500.105464 C397.961012,498.768115 401.193405,497.320632 404.378725,495.794481 L406.544115,494.724602 C409.682362,493.151251 412.72646,491.577899 415.739177,489.815746 L416.131458,489.595477 C419.269704,487.801856 422.266729,485.866634 425.263754,483.868478 C425.624653,483.632475 426.001242,483.427939 426.346449,483.191937 C426.691656,482.955934 427.036863,482.688464 427.382071,482.452461 C430.04958,480.61164 432.670016,478.739352 435.227686,476.75693 L435.478746,476.583861 C438.114873,474.538504 440.672544,472.398746 443.198832,470.211788 C443.496965,469.944318 443.81079,469.708315 444.108923,469.456579 L445.442678,468.213632 C446.807815,466.986418 448.14157,465.74347 449.459633,464.484789 C450.244195,463.745314 451.028756,463.005839 451.781935,462.234896 C453.162764,460.881814 454.496519,459.497265 455.814582,458.096982 C456.30101,457.59351 456.818821,457.090037 457.383705,456.523631 C457.493544,456.413496 457.587691,456.271895 457.69753,456.16176 C461.160061,452.385717 464.465681,448.468072 467.614388,444.408826 L467.990978,443.984021 L468.132199,443.763751 C471.08215,439.924774 473.875189,435.896995 476.511316,431.869215 L476.934979,431.271342 C476.99322,431.180373 477.04563,431.08578 477.091892,430.988138 C479.586798,427.101961 481.9091,423.121382 484.090181,419.014935 C484.247093,418.715998 484.435388,418.448528 484.576609,418.165325 C484.71783,417.882122 484.71783,417.850655 484.796286,417.709053 C486.888451,413.660295 488.849855,409.53287 490.680498,405.326778 C490.837411,404.996374 491.010014,404.697437 491.151235,404.3513 C491.292456,404.005163 491.417986,403.674759 491.559207,403.344355 C492.077018,402.085674 492.563446,400.826993 493.12833,399.568312 C493.693215,398.309631 494.085495,397.129617 494.540541,395.88667 C494.995587,394.643722 495.434941,393.322107 495.874296,392.031959 C496.172429,391.119415 496.517636,390.222605 496.81577,389.310061 L497.098212,388.350317 C497.616022,386.698298 498.102451,385.014812 498.573188,383.347059 C498.871321,382.308647 499.185146,381.270235 499.451897,380.200356 C499.954016,378.296601 500.409062,376.361379 500.848416,374.426157 C501.005328,373.686682 501.209314,372.96294 501.381918,372.223465 L501.381918,371.924528 C501.774199,370.115174 502.088023,368.290087 502.417539,366.464999 C502.574452,365.552455 502.778438,364.671379 502.919659,363.758835 C503.374704,361.021203 503.751294,358.267838 504.08081,355.483007 C504.316178,353.358982 504.551547,351.250691 504.739842,349.110934 C504.881063,347.537582 505.006592,345.964231 505.10074,344.390879 C505.273343,341.432979 505.336108,338.490812 505.3518,335.564378 C505.257652,334.935038 505.257652,334.101162 505.257652,333.267285 Z" id="路径" fill="url(#linearGradient-1)"></path>
                </g>
                <path d="M310.309793,0 C389.958484,0 433.705637,87.3210006 392.673067,160.560506 L353.146855,231.078114 L344.67359,244.797738 C345.81905,246.229488 367.457258,273.558601 368.555644,310.878495 L209.368101,310.878495 L317.825893,114.681581 C328.543004,95.3765595 316.350917,72.4056296 295.387432,72.4056296 L217.025422,72.4056296 L235.60384,0 L310.309793,0 Z" id="路径" fill="#F4D78B"></path>
                <path d="M394.399102,175.554545 C429.625917,206.124762 453.570736,257.368816 450.416798,310.154754 C450.197121,313.867863 449.820532,317.549505 449.396868,321.168213 C439.401554,408.331879 365.150647,477.622273 279.649127,477.622273 L0,477.622273 L141.095553,0 L220.650096,0 L178.283772,144.229119 L289.267851,144.229119 L247.497793,219.749985 L156.049297,219.749985 L102.69911,401.361932 L283.932833,401.361932 C332.497194,401.361932 374.518312,360.454797 377.531028,310.107553 C378.943239,286.601684 369.559883,259.524307 356.39494,243.365989 L394.399102,175.554545 Z" id="路径" fill="#F4D78B"></path>
            </g>
        </g>
    </g>
</svg>