<?xml version="1.0" encoding="utf-8"?>
<!-- Generator: Adobe Illustrator 25.2.1, SVG Export Plug-In . SVG Version: 6.00 Build 0)  -->
<svg version="1.1" id="Layer_1" xmlns="http://www.w3.org/2000/svg" xmlns:xlink="http://www.w3.org/1999/xlink" x="0px" y="0px"
	 viewBox="0 0 531.03 141.66" style="enable-background:new 0 0 531.03 141.66;" xml:space="preserve">
<style type="text/css">
	.st0{fill:#416CFD;}
	.st1{fill:#4639EA;}
	.st2{fill:#5A42FC;}
	.st3{fill:#FFFFFF;}
</style>
<g>
	<polygon class="st0" points="0,125.54 58.47,67.07 0.01,8.61 	"/>
	<path class="st1" d="M96.16,12.17C93.72,6.29,87.65,0,77.94,0H8.61l58.46,58.47l24.81-24.81C98.75,26.79,98.59,18.05,96.16,12.17z"
		/>
	<path class="st2" d="M67.07,75.68L8.6,134.14h69.34c9.71,0,15.78-6.29,18.21-12.17c2.44-5.88,2.59-14.62-4.27-21.48L67.07,75.68z"
		/>
	<path class="st3" d="M151.69,34.58c2.47,0.92,4.5,2.49,6.08,4.69c1.58,2.21,2.37,4.69,2.37,7.46c0,4.66-1.52,8.21-4.55,10.66
		c-3.03,2.45-7.39,3.67-13.06,3.67h-23V10.13h23c5,0,8.91,1.21,11.75,3.64c2.84,2.43,4.26,5.77,4.26,10.04
		c0,2.33-0.61,4.41-1.82,6.26c-1.21,1.84-2.89,3.27-5.02,4.29V34.58z M127.97,17.55v13.75h14.48c2.43,0,4.31-0.61,5.64-1.82
		c1.33-1.21,2-2.89,2-5.02c0-2.18-0.65-3.88-1.96-5.09c-1.31-1.21-3.13-1.82-5.46-1.82H127.97z M143.32,53.43
		c2.62,0,4.64-0.66,6.08-1.96c1.43-1.31,2.15-3.18,2.15-5.6c0-2.33-0.73-4.15-2.18-5.46c-1.46-1.31-3.52-1.97-6.19-1.97h-15.21
		v14.99H143.32z"/>
	<path class="st3" d="M171.88,58.78c-1.92-2.11-2.87-5.25-2.87-9.42V10.13h8.15V48.7c0,2.23,0.36,3.8,1.09,4.69
		c0.73,0.9,1.97,1.35,3.71,1.35c0.97,0,1.94-0.12,2.91-0.36l1.67,6.55c-2.18,0.68-4.25,1.02-6.19,1.02
		C176.62,61.94,173.8,60.89,171.88,58.78z"/>
	<path class="st3" d="M198.7,59.47c-2.86-1.6-5.07-3.82-6.62-6.66s-2.33-6.03-2.33-9.57c0-3.59,0.8-6.83,2.4-9.71
		c1.6-2.89,3.88-5.14,6.84-6.77c2.96-1.62,6.35-2.44,10.19-2.44c3.74,0,7.03,0.8,9.9,2.4c2.86,1.6,5.06,3.82,6.59,6.66
		c1.53,2.84,2.29,6.03,2.29,9.57c0,3.59-0.8,6.83-2.4,9.71c-1.6,2.89-3.87,5.14-6.8,6.77c-2.94,1.63-6.32,2.44-10.15,2.44
		C204.86,61.87,201.56,61.07,198.7,59.47z M214.6,53.14c1.67-1.02,2.97-2.4,3.89-4.15c0.92-1.75,1.38-3.66,1.38-5.75
		c0-2.18-0.45-4.16-1.35-5.93c-0.9-1.77-2.18-3.18-3.86-4.22c-1.67-1.04-3.58-1.56-5.71-1.56c-2.18,0-4.11,0.51-5.79,1.53
		c-1.67,1.02-2.97,2.4-3.89,4.15c-0.92,1.75-1.38,3.66-1.38,5.75c0,2.18,0.45,4.16,1.35,5.93c0.9,1.77,2.18,3.18,3.86,4.22
		c1.67,1.04,3.58,1.57,5.71,1.57C211,54.66,212.92,54.16,214.6,53.14z"/>
	<path class="st3" d="M242.58,59.72c-2.86-1.43-5.13-3.57-6.8-6.4c-1.67-2.84-2.51-6.22-2.51-10.15c0-3.88,0.85-7.24,2.55-10.08
		c1.7-2.84,4-5.01,6.91-6.51c2.91-1.5,6.19-2.26,9.82-2.26c2.38,0,4.62,0.33,6.73,0.98c2.11,0.66,3.99,1.59,5.64,2.8l-4,6.11
		c-2.38-1.8-5.17-2.69-8.37-2.69c-3.25,0-5.92,1.04-8,3.13c-2.09,2.09-3.13,4.88-3.13,8.37c0,3.64,1.03,6.49,3.09,8.55
		c2.06,2.06,4.64,3.09,7.75,3.09c1.75,0,3.37-0.24,4.88-0.73c1.5-0.48,3.03-1.36,4.58-2.62l3.71,6.26
		c-1.89,1.46-3.92,2.54-6.08,3.24c-2.16,0.7-4.55,1.05-7.17,1.05C248.64,61.87,245.44,61.15,242.58,59.72z"/>
	<path class="st3" d="M288.35,42.51l17.76,18.56h-10.48l-8.66-9.31c-2.67-2.81-4.66-5.17-5.97-7.06l-0.22,0.07
		c0.19,2.86,0.29,6.01,0.29,9.46v6.84h-8.15V10.13h8.15v18.05c0,5.14-0.07,9.24-0.22,12.3l0.22,0.07c1.31-1.84,2.94-3.88,4.88-6.11
		l8.08-9.31h9.75L288.35,42.51z"/>
	<path class="st3" d="M323.64,59.94c-2.28-1.28-3.86-2.87-4.73-4.77h-0.22v5.89h-7.57V10.13h8.15v10.99c0,3.88-0.22,7.25-0.66,10.12
		h0.15c1.16-2.04,2.87-3.7,5.13-4.98c2.26-1.28,4.91-1.93,7.97-1.93c3.3,0,6.26,0.76,8.88,2.29c2.62,1.53,4.69,3.7,6.22,6.51
		c1.53,2.81,2.29,6.07,2.29,9.75c0,3.74-0.76,7.05-2.29,9.93c-1.53,2.89-3.64,5.12-6.33,6.69c-2.69,1.58-5.71,2.37-9.06,2.37
		C328.57,61.87,325.92,61.23,323.64,59.94z M337.98,51.43c2.08-2.16,3.13-4.94,3.13-8.33c0-3.4-1.03-6.17-3.09-8.33
		c-2.06-2.16-4.72-3.24-7.97-3.24c-3.2,0-5.81,1.08-7.82,3.24c-2.01,2.16-3.02,4.94-3.02,8.33c0,3.4,1.01,6.17,3.02,8.33
		c2.01,2.16,4.57,3.24,7.68,3.24C333.2,54.66,335.89,53.59,337.98,51.43z"/>
	<path class="st3" d="M357.26,61.07V25.12h7.57c0,1.8-0.07,3.76-0.22,5.89h0.14c0.78-1.89,2.11-3.47,4-4.73
		c1.89-1.26,4.15-1.89,6.77-1.89c1.84,0,3.47,0.24,4.88,0.73l-2.11,7.2c-0.97-0.39-2.16-0.58-3.57-0.58c-2.81,0-5.07,0.97-6.77,2.91
		c-1.7,1.94-2.55,4.54-2.55,7.79v18.63H357.26z"/>
	<path class="st3" d="M386.91,18.32c-1-0.95-1.49-2.12-1.49-3.53c0-1.5,0.48-2.73,1.46-3.68c0.97-0.94,2.23-1.42,3.78-1.42
		c1.55,0,2.81,0.47,3.78,1.42c0.97,0.95,1.46,2.17,1.46,3.68c0,1.41-0.5,2.58-1.49,3.53c-1,0.95-2.24,1.42-3.75,1.42
		C389.16,19.74,387.91,19.26,386.91,18.32z M394.81,61.07h-8.15V25.12h8.15V61.07z"/>
	<path class="st3" d="M411.36,59.58c-2.69-1.53-4.79-3.7-6.3-6.51c-1.5-2.81-2.26-6.11-2.26-9.9c0-3.74,0.76-7.02,2.29-9.86
		c1.53-2.84,3.63-5.05,6.3-6.62c2.67-1.58,5.68-2.37,9.02-2.37c2.91,0,5.49,0.63,7.75,1.89c2.26,1.26,3.97,2.94,5.13,5.02h0.15
		c-0.44-2.86-0.66-5.99-0.66-9.39V10.13h8.15v50.94h-7.57v-5.89h-0.22c-0.87,1.84-2.47,3.42-4.8,4.73s-4.95,1.96-7.86,1.96
		C417.1,61.87,414.06,61.11,411.36,59.58z M429.7,51.46c2.06-2.13,3.09-4.88,3.09-8.22c0-3.44-1.02-6.26-3.06-8.44
		c-2.04-2.18-4.66-3.27-7.86-3.27s-5.82,1.08-7.86,3.24c-2.04,2.16-3.06,4.89-3.06,8.19c0,3.45,1.01,6.26,3.02,8.44
		s4.6,3.27,7.75,3.27C424.98,54.66,427.64,53.6,429.7,51.46z"/>
	<path class="st3" d="M451.28,74.31l3.06-6.55c2.91,1.36,5.43,2.33,7.57,2.91c2.13,0.58,4.22,0.87,6.26,0.87
		c3.25,0,5.81-0.76,7.68-2.29c1.87-1.53,2.9-3.7,3.09-6.51l0.51-7.57h-0.14c-1.07,1.99-2.67,3.59-4.8,4.8
		c-2.13,1.21-4.71,1.82-7.71,1.82c-3.49,0-6.58-0.78-9.28-2.33c-2.69-1.55-4.79-3.74-6.3-6.55c-1.5-2.81-2.26-6.06-2.26-9.75
		c0-3.69,0.75-6.96,2.26-9.82s3.6-5.08,6.3-6.66c2.69-1.58,5.76-2.37,9.2-2.37c3.01,0,5.68,0.66,8.01,1.97
		c2.33,1.31,3.93,2.91,4.8,4.8h0.14c-0.05-1.41-0.07-3.4-0.07-5.97h7.57v36.02c0,5.68-1.65,10.05-4.95,13.13
		c-3.3,3.08-7.93,4.62-13.9,4.62C462.14,78.9,456.47,77.37,451.28,74.31z M475.95,51.43c2.04-2.11,3.06-4.84,3.06-8.19
		c0-3.44-1.02-6.26-3.06-8.44c-2.04-2.18-4.63-3.27-7.79-3.27c-3.25,0-5.91,1.08-7.97,3.24c-2.06,2.16-3.09,4.89-3.09,8.19
		c0,3.45,1.02,6.25,3.06,8.4c2.04,2.16,4.66,3.24,7.86,3.24C471.26,54.59,473.91,53.54,475.95,51.43z"/>
	<path class="st3" d="M530.89,46h-27.51c0.24,2.72,1.37,4.88,3.38,6.48c2.01,1.6,4.52,2.4,7.53,2.4c1.89,0,3.83-0.33,5.82-0.98
		c1.99-0.65,3.76-1.66,5.31-3.02l3.86,5.38c-1.75,1.85-4,3.24-6.77,4.18c-2.77,0.95-5.6,1.42-8.51,1.42c-3.74,0-7.02-0.76-9.86-2.29
		c-2.84-1.53-5.05-3.71-6.62-6.55c-1.58-2.84-2.37-6.15-2.37-9.93c0-3.69,0.81-6.95,2.44-9.79c1.62-2.84,3.88-5.05,6.77-6.62
		c2.88-1.58,6.15-2.37,9.79-2.37c5.05,0,9.12,1.58,12.23,4.73c3.1,3.15,4.66,7.71,4.66,13.68C531.03,43.56,530.98,44.65,530.89,46z
		 M506.95,33.45c-1.84,1.43-3.01,3.56-3.49,6.37h19.87c-0.19-2.76-1.14-4.88-2.84-6.33c-1.7-1.46-3.91-2.18-6.62-2.18
		C511.09,31.31,508.79,32.02,506.95,33.45z"/>
	<path class="st3" d="M139.03,72.89c5.04,0,9.48,1.05,13.32,3.17c3.83,2.11,6.82,5.08,8.95,8.91c2.13,3.83,3.2,8.25,3.2,13.24
		c0,5.05-1.07,9.51-3.2,13.39c-2.13,3.88-5.14,6.89-9.02,9.02c-3.88,2.13-8.34,3.2-13.39,3.2h-19.36V72.89H139.03z M139.03,115.97
		c3.35,0,6.29-0.73,8.84-2.18c2.55-1.46,4.52-3.5,5.93-6.15c1.41-2.64,2.11-5.69,2.11-9.13c0-3.49-0.7-6.58-2.11-9.28
		c-1.41-2.69-3.4-4.78-5.97-6.26c-2.57-1.48-5.56-2.22-8.95-2.22h-10.92v35.22H139.03z"/>
	<path class="st3" d="M173.12,81.08c-1-0.95-1.49-2.12-1.49-3.53c0-1.5,0.48-2.73,1.46-3.68c0.97-0.94,2.23-1.42,3.78-1.42
		c1.55,0,2.81,0.47,3.78,1.42c0.97,0.95,1.46,2.17,1.46,3.68c0,1.41-0.5,2.58-1.49,3.53c-1,0.95-2.24,1.42-3.75,1.42
		C175.36,82.5,174.11,82.03,173.12,81.08z M181.02,123.83h-8.15V87.88h8.15V123.83z"/>
	<path class="st3" d="M191.35,137.08l3.06-6.55c2.91,1.36,5.43,2.33,7.57,2.91c2.13,0.58,4.22,0.87,6.26,0.87
		c3.25,0,5.81-0.76,7.68-2.29c1.87-1.53,2.9-3.7,3.09-6.51l0.51-7.57h-0.14c-1.07,1.99-2.67,3.59-4.8,4.8
		c-2.13,1.21-4.71,1.82-7.71,1.82c-3.49,0-6.58-0.78-9.28-2.33c-2.69-1.55-4.79-3.74-6.3-6.55c-1.5-2.81-2.26-6.06-2.26-9.75
		c0-3.69,0.75-6.96,2.26-9.82c1.5-2.86,3.6-5.08,6.3-6.66c2.69-1.58,5.76-2.37,9.2-2.37c3.01,0,5.68,0.66,8.01,1.97
		c2.33,1.31,3.93,2.91,4.8,4.8h0.14c-0.05-1.41-0.07-3.4-0.07-5.97h7.57v36.02c0,5.68-1.65,10.05-4.95,13.13
		c-3.3,3.08-7.93,4.62-13.9,4.62C202.21,141.66,196.54,140.13,191.35,137.08z M216.02,114.19c2.04-2.11,3.06-4.84,3.06-8.19
		c0-3.44-1.02-6.26-3.06-8.44c-2.04-2.18-4.63-3.27-7.79-3.27c-3.25,0-5.91,1.08-7.97,3.24c-2.06,2.16-3.09,4.89-3.09,8.19
		c0,3.45,1.02,6.25,3.06,8.4c2.04,2.16,4.66,3.24,7.86,3.24C211.33,117.36,213.98,116.3,216.02,114.19z"/>
	<path class="st3" d="M238.25,81.08c-1-0.95-1.49-2.12-1.49-3.53c0-1.5,0.48-2.73,1.46-3.68c0.97-0.94,2.23-1.42,3.78-1.42
		c1.55,0,2.81,0.47,3.78,1.42c0.97,0.95,1.46,2.17,1.46,3.68c0,1.41-0.5,2.58-1.49,3.53c-1,0.95-2.24,1.42-3.75,1.42
		C240.49,82.5,239.24,82.03,238.25,81.08z M246.14,123.83h-8.15V87.88h8.15V123.83z"/>
	<path class="st3" d="M280.42,122.6c-1.41,0.63-2.73,1.08-3.97,1.35c-1.24,0.27-2.61,0.4-4.11,0.4c-3.78,0-6.69-1.09-8.73-3.27
		c-2.04-2.18-3.06-5.36-3.06-9.53V94.65h-6.77v-6.77h6.77V78.5l8.08-0.87v10.26h10.33v6.77h-10.33v16.66c0,3.98,1.67,5.97,5.02,5.97
		c1.46,0,2.96-0.39,4.51-1.16L280.42,122.6z"/>
	<path class="st3" d="M317.6,101.27v22.56h-7.13c0-2.52,0.07-4.49,0.22-5.89h-0.22c-1.21,2.09-3,3.69-5.35,4.8
		c-2.35,1.12-4.84,1.67-7.46,1.67c-3.83,0-7.08-0.99-9.75-2.98c-2.67-1.99-4-4.88-4-8.66c0-2.62,0.67-4.83,2-6.62
		c1.33-1.79,3.09-3.13,5.28-4c2.18-0.87,4.56-1.31,7.13-1.31c2.04,0,4.04,0.21,6,0.62c1.97,0.41,3.68,1.06,5.13,1.93v-1.97
		c0-2.62-0.95-4.51-2.84-5.68c-1.89-1.16-4.34-1.75-7.35-1.75c-1.65,0-3.42,0.22-5.31,0.66c-1.89,0.44-3.69,0.97-5.39,1.6
		l-1.89-6.33c4.27-1.84,8.66-2.77,13.17-2.77C311.68,87.16,317.6,91.86,317.6,101.27z M306.29,115.65c1.96-1.38,3.09-3.33,3.38-5.86
		c-1.26-0.82-2.81-1.49-4.66-2c-1.84-0.51-3.54-0.76-5.09-0.76c-2.23,0-4.1,0.46-5.6,1.38c-1.51,0.92-2.26,2.26-2.26,4
		c0,1.75,0.74,3.07,2.22,3.97c1.48,0.9,3.21,1.35,5.2,1.35C302.05,117.72,304.32,117.03,306.29,115.65z"/>
	<path class="st3" d="M330.59,121.54c-1.92-2.11-2.87-5.25-2.87-9.42V72.89h8.15v38.57c0,2.23,0.36,3.8,1.09,4.69
		c0.73,0.9,1.97,1.35,3.71,1.35c0.97,0,1.94-0.12,2.91-0.36l1.67,6.55c-2.18,0.68-4.25,1.02-6.19,1.02
		C335.33,124.71,332.51,123.65,330.59,121.54z"/>
	<rect x="368.83" y="87.88" class="st3" width="162.2" height="35.95"/>
</g>
</svg>
