<svg
    viewBox="0 0 189 34"
    className="h-full"
    fill="none"
    xmlns="http://www.w3.org/2000/svg"
  >
    <path
      d="M0.508 33V2.508H5.568L16.26 31.152V2.508H16.876V33H11.816L1.124 4.444V33H0.508ZM32.9955 33.44C26.0875 33.44 20.8515 28.512 20.8515 21.516C20.8515 14.564 26.0875 9.636 32.9955 9.636C39.9035 9.636 45.1395 14.564 45.1395 21.516C45.1395 28.512 39.9035 33.44 32.9955 33.44ZM32.9955 32.868C37.1755 32.868 40.2555 28.776 40.2555 21.516C40.2555 14.828 37.3955 10.208 32.9955 10.208C28.7715 10.208 25.7355 14.3 25.7355 21.516C25.7355 28.248 28.5515 32.868 32.9955 32.868ZM46.4904 10.076H51.2424L57.5344 32.076L63.5624 10.076H64.2224L57.9304 33H53.0464L46.4904 10.076ZM72.0163 33.44C67.7043 33.44 64.7563 30.58 64.7563 26.796C64.7563 22.748 67.8803 19.932 72.1923 19.932H78.2643V15.488C78.2643 11.792 76.6803 10.208 74.6562 10.208C72.7643 10.208 71.0483 11.836 71.0483 15.664C71.0483 16.148 71.0923 16.72 71.0923 17.16H66.2523C66.2523 12.76 69.9043 9.636 74.6562 9.636C79.4083 9.636 83.0163 12.76 83.0163 17.556V33H78.2643V29.612C77.2523 31.988 75.0523 33.44 72.0163 33.44ZM73.9083 31.988C76.4163 31.988 78.2643 29.7 78.2643 26.532V20.504H74.6123C71.4883 20.504 69.5963 23.012 69.5963 26.532C69.5963 29.7 71.2243 31.988 73.9083 31.988ZM99.6799 33V2.508H109.624C114.464 2.508 118.072 5.808 118.072 10.384C118.072 14.168 115.564 17.028 111.868 17.82L119.084 33H114.024L107.16 18.084H104.608V33H99.6799ZM106.94 3.08H104.608V17.512H106.94C110.68 17.512 113.056 14.388 113.056 10.384C113.056 6.336 110.68 3.08 106.94 3.08ZM128.133 33.44C123.821 33.44 120.873 30.58 120.873 26.796C120.873 22.748 123.997 19.932 128.309 19.932H134.381V15.488C134.381 11.792 132.797 10.208 130.773 10.208C128.881 10.208 127.165 11.836 127.165 15.664C127.165 16.148 127.209 16.72 127.209 17.16H122.369C122.369 12.76 126.021 9.636 130.773 9.636C135.525 9.636 139.133 12.76 139.133 17.556V33H134.381V29.612C133.369 31.988 131.169 33.44 128.133 33.44ZM130.025 31.988C132.533 31.988 134.381 29.7 134.381 26.532V20.504H130.729C127.605 20.504 125.713 23.012 125.713 26.532C125.713 29.7 127.341 31.988 130.025 31.988ZM149.752 33H145V10.648H142.448V10.076H145V4.312H149.752V10.076H152.348V10.648H149.752V33ZM158.43 5.896C156.802 5.896 155.57 4.664 155.57 3.08C155.57 1.496 156.802 0.307999 158.43 0.307999C159.97 0.307999 161.202 1.496 161.202 3.08C161.202 4.664 159.97 5.896 158.43 5.896ZM160.762 33H156.01V10.076H160.762V33ZM176.812 33.44C169.904 33.44 164.668 28.512 164.668 21.516C164.668 14.564 169.904 9.636 176.812 9.636C183.72 9.636 188.956 14.564 188.956 21.516C188.956 28.512 183.72 33.44 176.812 33.44ZM176.812 32.868C180.992 32.868 184.072 28.776 184.072 21.516C184.072 14.828 181.212 10.208 176.812 10.208C172.588 10.208 169.552 14.3 169.552 21.516C169.552 28.248 172.368 32.868 176.812 32.868Z"
      fill="#fff"
    />
  </svg>