<svg xmlns="http://www.w3.org/2000/svg" width="170" height="58" viewBox="0 0 170 58" fill="none"><script xmlns=""/>
<path d="M64.4154 33.6203V29.7274H73.6514C75.0634 29.7274 76.1659 29.3266 76.9564 28.5252C77.7468 27.7237 78.1421 26.6672 78.1421 25.3609C78.1421 24.0546 77.7468 22.9773 76.9564 22.1966C76.1659 21.4159 75.0634 21.0256 73.6514 21.0256H61.4745V40.0191H57.4883V17H73.6514C74.9802 17 76.1659 17.1952 77.2112 17.5855C78.2539 17.9758 79.1354 18.5249 79.853 19.2327C80.5707 19.9405 81.1194 20.7992 81.499 21.8115C81.8786 22.8237 82.0685 23.9635 82.0685 25.2308C82.0685 26.498 81.8786 27.6092 81.499 28.6345C81.1194 29.6571 80.5707 30.5393 79.853 31.2783C79.1354 32.0173 78.2565 32.5924 77.2112 33.0036C76.1685 33.4147 74.9802 33.6203 73.6514 33.6203H64.4154Z" fill="#E6DAFE"/>
<path d="M95.1496 40.0139V31.2757L82.9414 17H88.3499L97.3026 27.604L106.284 17H111.409L99.167 31.2757V40.0139H95.1496Z" fill="#E6DAFE"/>
<path d="M125.266 40.0139V21.0204H114.688V17H139.877V21.0204H129.284V40.0139H125.266Z" fill="#E6DAFE"/>
<path d="M165.002 17H169.004V40.0139H165.002V17Z" fill="#E6DAFE"/>
<path d="M147.741 40.0139V30.0527H162.629V26.4902H147.741V17H143.739V40.0139H147.741Z" fill="#E6DAFE"/>
<path d="M28.7436 23.0226C28.7436 26.1999 26.1693 28.776 22.9944 28.776V34.5295C29.3442 34.5295 34.4927 29.3772 34.4927 23.0226C34.4927 16.668 29.3442 11.5156 22.9944 11.5156C20.9012 11.5156 18.9354 12.0751 17.2453 13.0561C13.8077 15.0442 11.4961 18.7628 11.4961 23.0226V51.7899L16.6654 56.9631L17.2453 57.5434V23.0226C17.2453 19.8453 19.8195 17.2691 22.9944 17.2691C26.1693 17.2691 28.7436 19.8453 28.7436 23.0226Z" fill="#E6DAFE"/>
<path d="M22.9966 0C18.8076 0 14.8812 1.12155 11.4983 3.08101C9.3323 4.33267 7.39252 5.92782 5.74916 7.7936C2.17121 11.8504 0 17.1798 0 23.0139V40.2743L5.74916 46.0278V23.0139C5.74916 17.9032 7.96977 13.3103 11.4983 10.1486C13.1573 8.66534 15.1049 7.49435 17.2475 6.73971C19.0442 6.09957 20.9814 5.75347 22.9966 5.75347C32.5214 5.75347 40.2441 13.482 40.2441 23.0139C40.2441 32.5458 32.5214 40.2743 22.9966 40.2743V46.0278C35.6989 46.0278 45.9933 35.7231 45.9933 23.0139C45.9933 10.3047 35.6989 0 22.9966 0Z" fill="#E6DAFE"/>
</svg>